<svg width="45" height="45" viewBox="0 0 45 45" fill="none" xmlns="http://www.w3.org/2000/svg">
<path fill-rule="evenodd" clip-rule="evenodd" d="M0 22.2857C0 9.97766 9.97766 0 22.2857 0C34.5938 0 44.5714 9.97766 44.5714 22.2857C44.5714 34.0181 35.5054 43.6329 23.9967 44.5068V18.3387L27.3581 21.6945C28.0282 22.3634 29.1135 22.3625 29.7825 21.6924C30.4514 21.0225 30.4505 19.937 29.7806 19.2681L23.4969 12.9949C22.8273 12.3265 21.743 12.3268 21.0737 12.9956L14.7956 19.2708C14.126 19.9401 14.1257 21.0255 14.795 21.6951C15.4644 22.3647 16.5497 22.3651 17.2193 21.6957L20.5682 18.3485V44.5063C9.06269 43.6293 0 34.0159 0 22.2857Z" fill="#0642BA"/>
</svg>
