<svg width="39" height="42" viewBox="0 0 39 42" fill="none" xmlns="http://www.w3.org/2000/svg">
<path fill-rule="evenodd" clip-rule="evenodd" d="M0 1.65517C0 0.741054 0.741054 0 1.65517 0H36.6558C37.5699 0 38.311 0.741054 38.311 1.65517V2.57843C38.311 3.37359 37.7455 4.0564 36.9643 4.2046C36.5219 4.2885 36.103 4.49934 35.761 4.84232L35.7593 4.84389L24.3218 16.2814L23.0999 20.7827L27.6071 19.564L35.4854 11.6856C35.9588 11.2122 36.6707 11.0706 37.2892 11.3268C37.9078 11.583 38.311 12.1865 38.311 12.856V31.7801C38.311 32.6943 37.5699 33.4353 36.6558 33.4353H16.4177L2.48287 41.4821C1.97076 41.7779 1.3398 41.7779 0.827653 41.4823C0.315493 41.1866 0 40.6401 0 40.0489V1.65517ZM6.5912 12.0016C6.5912 11.0875 7.33223 10.3464 8.24637 10.3464H24.5555C25.4696 10.3464 26.2107 11.0875 26.2107 12.0016C26.2107 12.9157 25.4696 13.6568 24.5555 13.6568H8.24637C7.33223 13.6568 6.5912 12.9157 6.5912 12.0016ZM7.15985 23.1337C7.15985 22.2195 7.9009 21.4785 8.81502 21.4785H15.1793C16.0934 21.4785 16.8344 22.2195 16.8344 23.1337C16.8344 24.0477 16.0934 24.7889 15.1793 24.7889H8.81502C7.9009 24.7889 7.15985 24.0477 7.15985 23.1337Z" fill="#0642BA"/>
</svg>
